<?xml version="1.0" encoding="UTF-8" standalone="no"?>
<!DOCTYPE svg PUBLIC "-//W3C//DTD SVG 1.1//EN"
 "http://www.w3.org/Graphics/SVG/1.1/DTD/svg11.dtd">
<!-- Generated by graphviz version 12.2.1 (20241206.2353)
 -->
<!-- Title: dependency&#45;cruiser output Pages: 1 -->
<svg width="857pt" height="533pt"
 viewBox="0.00 0.00 857.25 533.18" xmlns="http://www.w3.org/2000/svg" xmlns:xlink="http://www.w3.org/1999/xlink">
<g id="graph0" class="graph" transform="scale(1 1) rotate(0) translate(4 529.18)">
<title>dependency&#45;cruiser output</title>
<polygon fill="white" stroke="none" points="-4,4 -4,-529.18 853.25,-529.18 853.25,4 -4,4"/>
<g id="clust1" class="cluster">
<title>cluster_public</title>
<path fill="#ffffff" stroke="black" stroke-width="2" d="M36.62,-8C36.62,-8 452.5,-8 452.5,-8 458.5,-8 464.5,-14 464.5,-20 464.5,-20 464.5,-140 464.5,-140 464.5,-146 458.5,-152 452.5,-152 452.5,-152 36.62,-152 36.62,-152 30.62,-152 24.62,-146 24.62,-140 24.62,-140 24.62,-20 24.62,-20 24.62,-14 30.62,-8 36.62,-8"/>
<text text-anchor="middle" x="244.56" y="-139.45" font-family="Helvetica,sans-Serif" font-weight="bold" font-size="9.00">public</text>
</g>
<g id="clust2" class="cluster">
<title>cluster_public/js</title>
<path fill="#ffffff" stroke="black" stroke-width="2" d="M44.62,-16C44.62,-16 444.5,-16 444.5,-16 450.5,-16 456.5,-22 456.5,-28 456.5,-28 456.5,-114 456.5,-114 456.5,-120 450.5,-126 444.5,-126 444.5,-126 44.62,-126 44.62,-126 38.62,-126 32.62,-120 32.62,-114 32.62,-114 32.62,-28 32.62,-28 32.62,-22 38.62,-16 44.62,-16"/>
<text text-anchor="middle" x="244.56" y="-113.45" font-family="Helvetica,sans-Serif" font-weight="bold" font-size="9.00">js</text>
</g>
<g id="clust3" class="cluster">
<title>cluster_worker</title>
<path fill="#ffffff" stroke="black" stroke-width="2" d="M20,-160C20,-160 829.25,-160 829.25,-160 835.25,-160 841.25,-166 841.25,-172 841.25,-172 841.25,-502 841.25,-502 841.25,-508 835.25,-514 829.25,-514 829.25,-514 20,-514 20,-514 14,-514 8,-508 8,-502 8,-502 8,-172 8,-172 8,-166 14,-160 20,-160"/>
<text text-anchor="middle" x="424.62" y="-501.45" font-family="Helvetica,sans-Serif" font-weight="bold" font-size="9.00">worker</text>
</g>
<g id="clust4" class="cluster">
<title>cluster_worker/common</title>
<path fill="#ffffff" stroke="black" stroke-width="2" d="M366.75,-168C366.75,-168 821.25,-168 821.25,-168 827.25,-168 833.25,-174 833.25,-180 833.25,-180 833.25,-406 833.25,-406 833.25,-412 827.25,-418 821.25,-418 821.25,-418 366.75,-418 366.75,-418 360.75,-418 354.75,-412 354.75,-406 354.75,-406 354.75,-180 354.75,-180 354.75,-174 360.75,-168 366.75,-168"/>
<text text-anchor="middle" x="594" y="-405.45" font-family="Helvetica,sans-Serif" font-weight="bold" font-size="9.00">common</text>
</g>
<g id="clust5" class="cluster">
<title>cluster_worker/common/connection</title>
<path fill="#ffffff" stroke="black" stroke-width="2" d="M374.75,-317C374.75,-317 468.25,-317 468.25,-317 474.25,-317 480.25,-323 480.25,-329 480.25,-329 480.25,-357 480.25,-357 480.25,-363 474.25,-369 468.25,-369 468.25,-369 374.75,-369 374.75,-369 368.75,-369 362.75,-363 362.75,-357 362.75,-357 362.75,-329 362.75,-329 362.75,-323 368.75,-317 374.75,-317"/>
<text text-anchor="middle" x="421.5" y="-356.45" font-family="Helvetica,sans-Serif" font-weight="bold" font-size="9.00">connection</text>
</g>
<g id="clust6" class="cluster">
<title>cluster_worker/common/transactions</title>
<path fill="#ffffff" stroke="black" stroke-width="2" d="M500.25,-176C500.25,-176 813.25,-176 813.25,-176 819.25,-176 825.25,-182 825.25,-188 825.25,-188 825.25,-290 825.25,-290 825.25,-296 819.25,-302 813.25,-302 813.25,-302 500.25,-302 500.25,-302 494.25,-302 488.25,-296 488.25,-290 488.25,-290 488.25,-188 488.25,-188 488.25,-182 494.25,-176 500.25,-176"/>
<text text-anchor="middle" x="656.75" y="-289.45" font-family="Helvetica,sans-Serif" font-weight="bold" font-size="9.00">transactions</text>
</g>
<g id="clust7" class="cluster">
<title>cluster_worker/common/transactions/contracts</title>
<path fill="#ffffff" stroke="black" stroke-width="2" d="M508.25,-184C508.25,-184 805.25,-184 805.25,-184 811.25,-184 817.25,-190 817.25,-196 817.25,-196 817.25,-238 817.25,-238 817.25,-244 811.25,-250 805.25,-250 805.25,-250 508.25,-250 508.25,-250 502.25,-250 496.25,-244 496.25,-238 496.25,-238 496.25,-196 496.25,-196 496.25,-190 502.25,-184 508.25,-184"/>
<text text-anchor="middle" x="656.75" y="-237.45" font-family="Helvetica,sans-Serif" font-weight="bold" font-size="9.00">contracts</text>
</g>
<g id="clust8" class="cluster">
<title>cluster_worker/common/util</title>
<path fill="#ffffff" stroke="black" stroke-width="2" d="M638.12,-310C638.12,-310 685.12,-310 685.12,-310 691.12,-310 697.12,-316 697.12,-322 697.12,-322 697.12,-380 697.12,-380 697.12,-386 691.12,-392 685.12,-392 685.12,-392 638.12,-392 638.12,-392 632.12,-392 626.12,-386 626.12,-380 626.12,-380 626.12,-322 626.12,-322 626.12,-316 632.12,-310 638.12,-310"/>
<text text-anchor="middle" x="661.62" y="-379.45" font-family="Helvetica,sans-Serif" font-weight="bold" font-size="9.00">util</text>
</g>
<g id="clust9" class="cluster">
<title>cluster_worker/proxy</title>
<path fill="#ffffff" stroke="black" stroke-width="2" d="M28,-382C28,-382 334.75,-382 334.75,-382 340.75,-382 346.75,-388 346.75,-394 346.75,-394 346.75,-422 346.75,-422 346.75,-428 340.75,-434 334.75,-434 334.75,-434 28,-434 28,-434 22,-434 16,-428 16,-422 16,-422 16,-394 16,-394 16,-388 22,-382 28,-382"/>
<text text-anchor="middle" x="181.38" y="-421.45" font-family="Helvetica,sans-Serif" font-weight="bold" font-size="9.00">proxy</text>
</g>
<g id="clust10" class="cluster">
<title>cluster_worker/session</title>
<path fill="#ffffff" stroke="black" stroke-width="2" d="M513.88,-426C513.88,-426 598.38,-426 598.38,-426 604.38,-426 610.38,-432 610.38,-438 610.38,-438 610.38,-466 610.38,-466 610.38,-472 604.38,-478 598.38,-478 598.38,-478 513.88,-478 513.88,-478 507.88,-478 501.88,-472 501.88,-466 501.88,-466 501.88,-438 501.88,-438 501.88,-432 507.88,-426 513.88,-426"/>
<text text-anchor="middle" x="556.12" y="-465.45" font-family="Helvetica,sans-Serif" font-weight="bold" font-size="9.00">session</text>
</g>
<!-- public/js/alerts.js -->
<g id="node1" class="node">
<title>public/js/alerts.js</title>
<g id="a_node1"><a xlink:href="public/js/alerts.js" xlink:title="alerts.js">
<path fill="#ffffcc" stroke="black" d="M307.21,-41.88C307.21,-41.88 265.04,-41.88 265.04,-41.88 262.08,-41.88 259.12,-38.92 259.12,-35.96 259.12,-35.96 259.12,-30.04 259.12,-30.04 259.12,-27.08 262.08,-24.12 265.04,-24.12 265.04,-24.12 307.21,-24.12 307.21,-24.12 310.17,-24.12 313.12,-27.08 313.12,-30.04 313.12,-30.04 313.12,-35.96 313.12,-35.96 313.12,-38.92 310.17,-41.88 307.21,-41.88"/>
<text text-anchor="start" x="270.38" y="-29.32" font-family="Helvetica,sans-Serif" font-size="9.00">alerts.js</text>
</a>
</g>
</g>
<!-- public/js/config.js -->
<g id="node2" class="node">
<title>public/js/config.js</title>
<g id="a_node2"><a xlink:href="public/js/config.js" xlink:title="config.js">
<path fill="#ffffcc" stroke="black" d="M442.58,-63.88C442.58,-63.88 400.42,-63.88 400.42,-63.88 397.46,-63.88 394.5,-60.92 394.5,-57.96 394.5,-57.96 394.5,-52.04 394.5,-52.04 394.5,-49.08 397.46,-46.12 400.42,-46.12 400.42,-46.12 442.58,-46.12 442.58,-46.12 445.54,-46.12 448.5,-49.08 448.5,-52.04 448.5,-52.04 448.5,-57.96 448.5,-57.96 448.5,-60.92 445.54,-63.88 442.58,-63.88"/>
<text text-anchor="start" x="404.62" y="-51.33" font-family="Helvetica,sans-Serif" font-size="9.00">config.js</text>
</a>
</g>
</g>
<!-- public/js/alerts.js&#45;&gt;public/js/config.js -->
<g id="edge1" class="edge">
<title>public/js/alerts.js&#45;&gt;public/js/config.js</title>
<path fill="none" stroke="#000000" stroke-width="2" stroke-opacity="0.200000" d="M313.48,-37.35C334.12,-40.75 363.02,-45.52 385.59,-49.24"/>
<polygon fill="#000000" fill-opacity="0.200000" stroke="#000000" stroke-width="2" stroke-opacity="0.200000" points="384.96,-51.27 391.22,-50.17 385.64,-47.12 384.96,-51.27"/>
</g>
<!-- public/js/modal.js -->
<g id="node3" class="node">
<title>public/js/modal.js</title>
<g id="a_node3"><a xlink:href="public/js/modal.js" xlink:title="modal.js">
<path fill="#ffffcc" stroke="black" d="M193.46,-85.88C193.46,-85.88 151.29,-85.88 151.29,-85.88 148.33,-85.88 145.38,-82.92 145.38,-79.96 145.38,-79.96 145.38,-74.04 145.38,-74.04 145.38,-71.08 148.33,-68.12 151.29,-68.12 151.29,-68.12 193.46,-68.12 193.46,-68.12 196.42,-68.12 199.38,-71.08 199.38,-74.04 199.38,-74.04 199.38,-79.96 199.38,-79.96 199.38,-82.92 196.42,-85.88 193.46,-85.88"/>
<text text-anchor="start" x="155.12" y="-73.33" font-family="Helvetica,sans-Serif" font-size="9.00">modal.js</text>
</a>
</g>
</g>
<!-- public/js/modal.js&#45;&gt;public/js/config.js -->
<g id="edge2" class="edge">
<title>public/js/modal.js&#45;&gt;public/js/config.js</title>
<path fill="none" stroke="#000000" stroke-width="2" stroke-opacity="0.200000" d="M199.75,-85.06C210.16,-87.85 222.29,-90.62 233.5,-92 283.46,-98.14 297.77,-103.6 346.75,-92 365.69,-87.52 385.29,-77.37 399.52,-68.84"/>
<polygon fill="#000000" fill-opacity="0.200000" stroke="#000000" stroke-width="2" stroke-opacity="0.200000" points="400.27,-70.85 404.27,-65.9 398.06,-67.28 400.27,-70.85"/>
</g>
<!-- public/js/renderers.js -->
<g id="node4" class="node">
<title>public/js/renderers.js</title>
<g id="a_node4"><a xlink:href="public/js/renderers.js" xlink:title="renderers.js">
<path fill="#ffffcc" stroke="black" d="M312.58,-85.88C312.58,-85.88 259.67,-85.88 259.67,-85.88 256.71,-85.88 253.75,-82.92 253.75,-79.96 253.75,-79.96 253.75,-74.04 253.75,-74.04 253.75,-71.08 256.71,-68.12 259.67,-68.12 259.67,-68.12 312.58,-68.12 312.58,-68.12 315.54,-68.12 318.5,-71.08 318.5,-74.04 318.5,-74.04 318.5,-79.96 318.5,-79.96 318.5,-82.92 315.54,-85.88 312.58,-85.88"/>
<text text-anchor="start" x="261.75" y="-73.33" font-family="Helvetica,sans-Serif" font-size="9.00">renderers.js</text>
</a>
</g>
</g>
<!-- public/js/modal.js&#45;&gt;public/js/renderers.js -->
<g id="edge3" class="edge">
<title>public/js/modal.js&#45;&gt;public/js/renderers.js</title>
<path fill="none" stroke="#000000" stroke-width="2" stroke-opacity="0.200000" d="M199.86,-77C213.11,-77 229.45,-77 244.27,-77"/>
<polygon fill="#000000" fill-opacity="0.200000" stroke="#000000" stroke-width="2" stroke-opacity="0.200000" points="244.23,-79.1 250.23,-77 244.23,-74.9 244.23,-79.1"/>
</g>
<!-- public/js/script.js -->
<g id="node5" class="node">
<title>public/js/script.js</title>
<g id="a_node5"><a xlink:href="public/js/script.js" xlink:title="script.js">
<path fill="#ffffcc" stroke="black" d="M88.71,-63.88C88.71,-63.88 46.54,-63.88 46.54,-63.88 43.58,-63.88 40.62,-60.92 40.62,-57.96 40.62,-57.96 40.62,-52.04 40.62,-52.04 40.62,-49.08 43.58,-46.12 46.54,-46.12 46.54,-46.12 88.71,-46.12 88.71,-46.12 91.67,-46.12 94.62,-49.08 94.62,-52.04 94.62,-52.04 94.62,-57.96 94.62,-57.96 94.62,-60.92 91.67,-63.88 88.71,-63.88"/>
<text text-anchor="start" x="52.25" y="-51.33" font-family="Helvetica,sans-Serif" font-size="9.00">script.js</text>
</a>
</g>
</g>
<!-- public/js/script.js&#45;&gt;public/js/config.js -->
<g id="edge4" class="edge">
<title>public/js/script.js&#45;&gt;public/js/config.js</title>
<path fill="none" stroke="#000000" stroke-width="2" stroke-opacity="0.200000" d="M95.07,-55C157.63,-55 314.74,-55 385.27,-55"/>
<polygon fill="#000000" fill-opacity="0.200000" stroke="#000000" stroke-width="2" stroke-opacity="0.200000" points="385.2,-57.1 391.2,-55 385.2,-52.9 385.2,-57.1"/>
</g>
<!-- public/js/script.js&#45;&gt;public/js/modal.js -->
<g id="edge5" class="edge">
<title>public/js/script.js&#45;&gt;public/js/modal.js</title>
<path fill="none" stroke="#000000" stroke-width="2" stroke-opacity="0.200000" d="M95.09,-60.67C107.67,-63.36 122.89,-66.62 136.41,-69.51"/>
<polygon fill="#000000" fill-opacity="0.200000" stroke="#000000" stroke-width="2" stroke-opacity="0.200000" points="135.74,-71.52 142.04,-70.72 136.62,-67.41 135.74,-71.52"/>
</g>
<!-- public/js/transactions.js -->
<g id="node6" class="node">
<title>public/js/transactions.js</title>
<g id="a_node6"><a xlink:href="public/js/transactions.js" xlink:title="transactions.js">
<path fill="#ffffcc" stroke="black" d="M203.71,-41.88C203.71,-41.88 141.04,-41.88 141.04,-41.88 138.08,-41.88 135.12,-38.92 135.12,-35.96 135.12,-35.96 135.12,-30.04 135.12,-30.04 135.12,-27.08 138.08,-24.12 141.04,-24.12 141.04,-24.12 203.71,-24.12 203.71,-24.12 206.67,-24.12 209.62,-27.08 209.62,-30.04 209.62,-30.04 209.62,-35.96 209.62,-35.96 209.62,-38.92 206.67,-41.88 203.71,-41.88"/>
<text text-anchor="start" x="143.12" y="-29.32" font-family="Helvetica,sans-Serif" font-size="9.00">transactions.js</text>
</a>
</g>
</g>
<!-- public/js/script.js&#45;&gt;public/js/transactions.js -->
<g id="edge6" class="edge">
<title>public/js/script.js&#45;&gt;public/js/transactions.js</title>
<path fill="none" stroke="#000000" stroke-width="2" stroke-opacity="0.200000" d="M95.09,-49.33C104.56,-47.31 115.53,-44.96 126.15,-42.68"/>
<polygon fill="#000000" fill-opacity="0.200000" stroke="#000000" stroke-width="2" stroke-opacity="0.200000" points="126.55,-44.75 131.98,-41.44 125.67,-40.64 126.55,-44.75"/>
</g>
<!-- public/js/transactions.js&#45;&gt;public/js/alerts.js -->
<g id="edge7" class="edge">
<title>public/js/transactions.js&#45;&gt;public/js/alerts.js</title>
<path fill="none" stroke="#000000" stroke-width="2" stroke-opacity="0.200000" d="M209.97,-33C222.77,-33 237.12,-33 249.82,-33"/>
<polygon fill="#000000" fill-opacity="0.200000" stroke="#000000" stroke-width="2" stroke-opacity="0.200000" points="249.7,-35.1 255.7,-33 249.7,-30.9 249.7,-35.1"/>
</g>
<!-- worker/common/blockingwebsocket.js -->
<g id="node7" class="node">
<title>worker/common/blockingwebsocket.js</title>
<g id="a_node7"><a xlink:href="worker/common/blockingwebsocket.js" xlink:title="blockingwebsocket.js">
<path fill="#ffffcc" stroke="black" d="M601.71,-331.88C601.71,-331.88 510.54,-331.88 510.54,-331.88 507.58,-331.88 504.62,-328.92 504.62,-325.96 504.62,-325.96 504.62,-320.04 504.62,-320.04 504.62,-317.08 507.58,-314.12 510.54,-314.12 510.54,-314.12 601.71,-314.12 601.71,-314.12 604.67,-314.12 607.62,-317.08 607.62,-320.04 607.62,-320.04 607.62,-325.96 607.62,-325.96 607.62,-328.92 604.67,-331.88 601.71,-331.88"/>
<text text-anchor="start" x="512.62" y="-319.32" font-family="Helvetica,sans-Serif" font-size="9.00">blockingwebsocket.js</text>
</a>
</g>
</g>
<!-- worker/common/util/dateutil.js -->
<g id="node8" class="node">
<title>worker/common/util/dateutil.js</title>
<g id="a_node8"><a xlink:href="worker/common/util/dateutil.js" xlink:title="dateutil.js">
<path fill="#ffffcc" stroke="black" d="M683.21,-335.88C683.21,-335.88 640.04,-335.88 640.04,-335.88 637.08,-335.88 634.12,-332.92 634.12,-329.96 634.12,-329.96 634.12,-324.04 634.12,-324.04 634.12,-321.08 637.08,-318.12 640.04,-318.12 640.04,-318.12 683.21,-318.12 683.21,-318.12 686.17,-318.12 689.12,-321.08 689.12,-324.04 689.12,-324.04 689.12,-329.96 689.12,-329.96 689.12,-332.92 686.17,-335.88 683.21,-335.88"/>
<text text-anchor="start" x="642.12" y="-323.32" font-family="Helvetica,sans-Serif" font-size="9.00">dateutil.js</text>
</a>
</g>
</g>
<!-- worker/common/blockingwebsocket.js&#45;&gt;worker/common/util/dateutil.js -->
<g id="edge8" class="edge">
<title>worker/common/blockingwebsocket.js&#45;&gt;worker/common/util/dateutil.js</title>
<path fill="none" stroke="#000000" stroke-width="2" stroke-opacity="0.200000" d="M607.97,-324.96C613.66,-325.19 619.38,-325.41 624.83,-325.62"/>
<polygon fill="#000000" fill-opacity="0.200000" stroke="#000000" stroke-width="2" stroke-opacity="0.200000" points="624.61,-327.71 630.68,-325.84 624.77,-323.51 624.61,-327.71"/>
</g>
<!-- worker/common/connection/websocketxnquery.js -->
<g id="node9" class="node">
<title>worker/common/connection/websocketxnquery.js</title>
<g id="a_node9"><a xlink:href="worker/common/connection/websocketxnquery.js" xlink:title="websocketxnquery.js">
<path fill="#ffffcc" stroke="black" d="M466.33,-342.88C466.33,-342.88 376.67,-342.88 376.67,-342.88 373.71,-342.88 370.75,-339.92 370.75,-336.96 370.75,-336.96 370.75,-331.04 370.75,-331.04 370.75,-328.08 373.71,-325.12 376.67,-325.12 376.67,-325.12 466.33,-325.12 466.33,-325.12 469.29,-325.12 472.25,-328.08 472.25,-331.04 472.25,-331.04 472.25,-336.96 472.25,-336.96 472.25,-339.92 469.29,-342.88 466.33,-342.88"/>
<text text-anchor="start" x="378.75" y="-330.32" font-family="Helvetica,sans-Serif" font-size="9.00">websocketxnquery.js</text>
</a>
</g>
</g>
<!-- worker/common/connection/websocketxnquery.js&#45;&gt;worker/common/blockingwebsocket.js -->
<g id="edge10" class="edge">
<title>worker/common/connection/websocketxnquery.js&#45;&gt;worker/common/blockingwebsocket.js</title>
<path fill="none" stroke="#000000" stroke-width="2" stroke-opacity="0.200000" d="M472.64,-329.84C480.13,-329.22 487.91,-328.58 495.56,-327.94"/>
<polygon fill="#000000" fill-opacity="0.200000" stroke="#000000" stroke-width="2" stroke-opacity="0.200000" points="495.65,-330.04 501.46,-327.45 495.3,-325.85 495.65,-330.04"/>
</g>
<!-- worker/common/connection/websocketxnquery.js&#45;&gt;worker/common/util/dateutil.js -->
<g id="edge13" class="edge">
<title>worker/common/connection/websocketxnquery.js&#45;&gt;worker/common/util/dateutil.js</title>
<path fill="none" stroke="#000000" stroke-width="2" stroke-opacity="0.200000" d="M472.54,-339.88C510.51,-343.31 563.92,-345.91 610.38,-340 615.18,-339.39 620.18,-338.46 625.09,-337.38"/>
<polygon fill="#000000" fill-opacity="0.200000" stroke="#000000" stroke-width="2" stroke-opacity="0.200000" points="625.46,-339.45 630.8,-336 624.48,-335.36 625.46,-339.45"/>
</g>
<!-- worker/session/usersessiondata.js -->
<g id="node10" class="node">
<title>worker/session/usersessiondata.js</title>
<g id="a_node10"><a xlink:href="worker/session/usersessiondata.js" xlink:title="usersessiondata.js">
<path fill="#ffffcc" stroke="black" d="M596.46,-451.88C596.46,-451.88 515.79,-451.88 515.79,-451.88 512.83,-451.88 509.88,-448.92 509.88,-445.96 509.88,-445.96 509.88,-440.04 509.88,-440.04 509.88,-437.08 512.83,-434.12 515.79,-434.12 515.79,-434.12 596.46,-434.12 596.46,-434.12 599.42,-434.12 602.38,-437.08 602.38,-440.04 602.38,-440.04 602.38,-445.96 602.38,-445.96 602.38,-448.92 599.42,-451.88 596.46,-451.88"/>
<text text-anchor="start" x="517.88" y="-439.32" font-family="Helvetica,sans-Serif" font-size="9.00">usersessiondata.js</text>
</a>
</g>
</g>
<!-- worker/common/connection/websocketxnquery.js&#45;&gt;worker/session/usersessiondata.js -->
<g id="edge9" class="edge">
<title>worker/common/connection/websocketxnquery.js&#45;&gt;worker/session/usersessiondata.js</title>
<path fill="none" stroke="#000000" stroke-width="2" stroke-opacity="0.200000" d="M433.81,-343.29C456.81,-362.2 509.22,-405.27 537.02,-428.12"/>
<polygon fill="#000000" fill-opacity="0.200000" stroke="#000000" stroke-width="2" stroke-opacity="0.200000" points="535.54,-429.62 541.51,-431.81 538.21,-426.38 535.54,-429.62"/>
</g>
<!-- worker/common/transactions/decoders.js -->
<g id="node11" class="node">
<title>worker/common/transactions/decoders.js</title>
<g id="a_node11"><a xlink:href="worker/common/transactions/decoders.js" xlink:title="decoders.js">
<path fill="#ffffcc" stroke="black" d="M581.83,-275.88C581.83,-275.88 530.42,-275.88 530.42,-275.88 527.46,-275.88 524.5,-272.92 524.5,-269.96 524.5,-269.96 524.5,-264.04 524.5,-264.04 524.5,-261.08 527.46,-258.12 530.42,-258.12 530.42,-258.12 581.83,-258.12 581.83,-258.12 584.79,-258.12 587.75,-261.08 587.75,-264.04 587.75,-264.04 587.75,-269.96 587.75,-269.96 587.75,-272.92 584.79,-275.88 581.83,-275.88"/>
<text text-anchor="start" x="532.5" y="-263.32" font-family="Helvetica,sans-Serif" font-size="9.00">decoders.js</text>
</a>
</g>
</g>
<!-- worker/common/connection/websocketxnquery.js&#45;&gt;worker/common/transactions/decoders.js -->
<g id="edge11" class="edge">
<title>worker/common/connection/websocketxnquery.js&#45;&gt;worker/common/transactions/decoders.js</title>
<path fill="none" stroke="#000000" stroke-width="2" stroke-opacity="0.200000" d="M435.67,-324.76C448.65,-315.9 469.24,-302.52 488.25,-293 498.17,-288.03 509.28,-283.38 519.56,-279.41"/>
<polygon fill="#000000" fill-opacity="0.200000" stroke="#000000" stroke-width="2" stroke-opacity="0.200000" points="520.24,-281.4 525.11,-277.32 518.76,-277.47 520.24,-281.4"/>
</g>
<!-- worker/common/transactions/transaction.js -->
<g id="node12" class="node">
<title>worker/common/transactions/transaction.js</title>
<g id="a_node12"><a xlink:href="worker/common/transactions/transaction.js" xlink:title="transaction.js">
<path fill="#ffffcc" stroke="black" d="M690.71,-275.88C690.71,-275.88 632.54,-275.88 632.54,-275.88 629.58,-275.88 626.62,-272.92 626.62,-269.96 626.62,-269.96 626.62,-264.04 626.62,-264.04 626.62,-261.08 629.58,-258.12 632.54,-258.12 632.54,-258.12 690.71,-258.12 690.71,-258.12 693.67,-258.12 696.62,-261.08 696.62,-264.04 696.62,-264.04 696.62,-269.96 696.62,-269.96 696.62,-272.92 693.67,-275.88 690.71,-275.88"/>
<text text-anchor="start" x="634.62" y="-263.32" font-family="Helvetica,sans-Serif" font-size="9.00">transaction.js</text>
</a>
</g>
</g>
<!-- worker/common/connection/websocketxnquery.js&#45;&gt;worker/common/transactions/transaction.js -->
<g id="edge12" class="edge">
<title>worker/common/connection/websocketxnquery.js&#45;&gt;worker/common/transactions/transaction.js</title>
<path fill="none" stroke="#000000" stroke-width="2" stroke-opacity="0.200000" d="M438.17,-324.76C451.17,-317.5 470.34,-307.69 488.25,-302 540.67,-285.35 556.78,-294.34 610.38,-282 614.48,-281.05 618.75,-279.96 622.98,-278.8"/>
<polygon fill="#000000" fill-opacity="0.200000" stroke="#000000" stroke-width="2" stroke-opacity="0.200000" points="623.46,-280.85 628.65,-277.19 622.31,-276.81 623.46,-280.85"/>
</g>
<!-- worker/common/transactions/contracts/contractDataParser.js -->
<g id="node13" class="node">
<title>worker/common/transactions/contracts/contractDataParser.js</title>
<g id="a_node13"><a xlink:href="worker/common/transactions/contracts/contractDataParser.js" xlink:title="contractDataParser.js">
<path fill="#ffffcc" stroke="black" d="M602.08,-223.88C602.08,-223.88 510.17,-223.88 510.17,-223.88 507.21,-223.88 504.25,-220.92 504.25,-217.96 504.25,-217.96 504.25,-212.04 504.25,-212.04 504.25,-209.08 507.21,-206.12 510.17,-206.12 510.17,-206.12 602.08,-206.12 602.08,-206.12 605.04,-206.12 608,-209.08 608,-212.04 608,-212.04 608,-217.96 608,-217.96 608,-220.92 605.04,-223.88 602.08,-223.88"/>
<text text-anchor="start" x="512.25" y="-211.32" font-family="Helvetica,sans-Serif" font-size="9.00">contractDataParser.js</text>
</a>
</g>
</g>
<!-- worker/session/usersessiondata.js&#45;&gt;worker/common/transactions/contracts/contractDataParser.js -->
<g id="edge22" class="edge">
<title>worker/session/usersessiondata.js&#45;&gt;worker/common/transactions/contracts/contractDataParser.js</title>
<path fill="none" stroke="#000000" stroke-width="2" stroke-opacity="0.200000" d="M546.07,-433.72C529.2,-417.37 495.9,-381.47 484.25,-343 480.74,-331.41 480.74,-245.59 484.25,-234 486.23,-227.46 490.46,-222.81 495.94,-219.56"/>
<polygon fill="#000000" fill-opacity="0.200000" stroke="#000000" stroke-width="2" stroke-opacity="0.200000" points="496.68,-221.52 501.31,-217.16 494.97,-217.69 496.68,-221.52"/>
</g>
<!-- worker/common/util/jsonutil.js -->
<g id="node16" class="node">
<title>worker/common/util/jsonutil.js</title>
<g id="a_node16"><a xlink:href="worker/common/util/jsonutil.js" xlink:title="jsonutil.js">
<path fill="#ffffcc" stroke="black" d="M682.83,-365.88C682.83,-365.88 640.42,-365.88 640.42,-365.88 637.46,-365.88 634.5,-362.92 634.5,-359.96 634.5,-359.96 634.5,-354.04 634.5,-354.04 634.5,-351.08 637.46,-348.12 640.42,-348.12 640.42,-348.12 682.83,-348.12 682.83,-348.12 685.79,-348.12 688.75,-351.08 688.75,-354.04 688.75,-354.04 688.75,-359.96 688.75,-359.96 688.75,-362.92 685.79,-365.88 682.83,-365.88"/>
<text text-anchor="start" x="642.5" y="-353.32" font-family="Helvetica,sans-Serif" font-size="9.00">jsonutil.js</text>
</a>
</g>
</g>
<!-- worker/session/usersessiondata.js&#45;&gt;worker/common/util/jsonutil.js -->
<g id="edge23" class="edge">
<title>worker/session/usersessiondata.js&#45;&gt;worker/common/util/jsonutil.js</title>
<path fill="none" stroke="#000000" stroke-width="2" stroke-opacity="0.200000" d="M568.2,-433.8C586.1,-418.93 621.53,-389.48 642.95,-371.69"/>
<polygon fill="#000000" fill-opacity="0.200000" stroke="#000000" stroke-width="2" stroke-opacity="0.200000" points="644.03,-373.52 647.3,-368.07 641.34,-370.29 644.03,-373.52"/>
</g>
<!-- worker/common/transactions/decoders.js&#45;&gt;worker/common/transactions/transaction.js -->
<g id="edge17" class="edge">
<title>worker/common/transactions/decoders.js&#45;&gt;worker/common/transactions/transaction.js</title>
<path fill="none" stroke="#000000" stroke-width="2" stroke-opacity="0.200000" d="M588.18,-267C597.39,-267 607.64,-267 617.47,-267"/>
<polygon fill="#000000" fill-opacity="0.200000" stroke="#000000" stroke-width="2" stroke-opacity="0.200000" points="617.31,-269.1 623.31,-267 617.31,-264.9 617.31,-269.1"/>
</g>
<!-- worker/common/transactions/contracts/dummyhelper.js -->
<g id="node14" class="node">
<title>worker/common/transactions/contracts/dummyhelper.js</title>
<g id="a_node14"><a xlink:href="worker/common/transactions/contracts/dummyhelper.js" xlink:title="dummyhelper.js">
<path fill="#ffffcc" stroke="black" d="M696.33,-209.88C696.33,-209.88 626.92,-209.88 626.92,-209.88 623.96,-209.88 621,-206.92 621,-203.96 621,-203.96 621,-198.04 621,-198.04 621,-195.08 623.96,-192.12 626.92,-192.12 626.92,-192.12 696.33,-192.12 696.33,-192.12 699.29,-192.12 702.25,-195.08 702.25,-198.04 702.25,-198.04 702.25,-203.96 702.25,-203.96 702.25,-206.92 699.29,-209.88 696.33,-209.88"/>
<text text-anchor="start" x="629" y="-197.32" font-family="Helvetica,sans-Serif" font-size="9.00">dummyhelper.js</text>
</a>
</g>
</g>
<!-- worker/common/transactions/contracts/contractDataParser.js&#45;&gt;worker/common/transactions/contracts/dummyhelper.js -->
<g id="edge14" class="edge">
<title>worker/common/transactions/contracts/contractDataParser.js&#45;&gt;worker/common/transactions/contracts/dummyhelper.js</title>
<path fill="none" stroke="#000000" stroke-width="2" stroke-opacity="0.200000" d="M608.27,-208.08C609.44,-207.92 610.62,-207.76 611.79,-207.61"/>
<polygon fill="#000000" fill-opacity="0.200000" stroke="#000000" stroke-width="2" stroke-opacity="0.200000" points="612.04,-209.69 617.7,-206.81 611.48,-205.53 612.04,-209.69"/>
</g>
<!-- worker/common/transactions/contracts/fielddataprovider.js -->
<g id="node15" class="node">
<title>worker/common/transactions/contracts/fielddataprovider.js</title>
<g id="a_node15"><a xlink:href="worker/common/transactions/contracts/fielddataprovider.js" xlink:title="fielddataprovider.js">
<path fill="#ffffcc" stroke="black" d="M803.33,-216.88C803.33,-216.88 721.17,-216.88 721.17,-216.88 718.21,-216.88 715.25,-213.92 715.25,-210.96 715.25,-210.96 715.25,-205.04 715.25,-205.04 715.25,-202.08 718.21,-199.12 721.17,-199.12 721.17,-199.12 803.33,-199.12 803.33,-199.12 806.29,-199.12 809.25,-202.08 809.25,-205.04 809.25,-205.04 809.25,-210.96 809.25,-210.96 809.25,-213.92 806.29,-216.88 803.33,-216.88"/>
<text text-anchor="start" x="723.25" y="-204.32" font-family="Helvetica,sans-Serif" font-size="9.00">fielddataprovider.js</text>
</a>
</g>
</g>
<!-- worker/common/transactions/contracts/contractDataParser.js&#45;&gt;worker/common/transactions/contracts/fielddataprovider.js -->
<g id="edge15" class="edge">
<title>worker/common/transactions/contracts/contractDataParser.js&#45;&gt;worker/common/transactions/contracts/fielddataprovider.js</title>
<path fill="none" stroke="#000000" stroke-width="2" stroke-opacity="0.200000" d="M608.22,-217.2C636.05,-217.93 671.08,-218.1 702.25,-216 703.54,-215.91 704.84,-215.82 706.16,-215.71"/>
<polygon fill="#000000" fill-opacity="0.200000" stroke="#000000" stroke-width="2" stroke-opacity="0.200000" points="706.14,-217.82 711.92,-215.16 705.75,-213.64 706.14,-217.82"/>
</g>
<!-- worker/common/transactions/contracts/dummyhelper.js&#45;&gt;worker/common/transactions/contracts/fielddataprovider.js -->
<g id="edge16" class="edge">
<title>worker/common/transactions/contracts/dummyhelper.js&#45;&gt;worker/common/transactions/contracts/fielddataprovider.js</title>
<path fill="none" stroke="#000000" stroke-width="2" stroke-opacity="0.200000" d="M702.74,-203.85C703.88,-203.93 705.03,-204.01 706.18,-204.09"/>
<polygon fill="#000000" fill-opacity="0.200000" stroke="#000000" stroke-width="2" stroke-opacity="0.200000" points="705.89,-206.18 712.02,-204.51 706.19,-201.99 705.89,-206.18"/>
</g>
<!-- worker/proxy/requestprocessor.js -->
<g id="node17" class="node">
<title>worker/proxy/requestprocessor.js</title>
<g id="a_node17"><a xlink:href="worker/proxy/requestprocessor.js" xlink:title="requestprocessor.js">
<path fill="#ffffcc" stroke="black" d="M214.58,-407.88C214.58,-407.88 130.17,-407.88 130.17,-407.88 127.21,-407.88 124.25,-404.92 124.25,-401.96 124.25,-401.96 124.25,-396.04 124.25,-396.04 124.25,-393.08 127.21,-390.12 130.17,-390.12 130.17,-390.12 214.58,-390.12 214.58,-390.12 217.54,-390.12 220.5,-393.08 220.5,-396.04 220.5,-396.04 220.5,-401.96 220.5,-401.96 220.5,-404.92 217.54,-407.88 214.58,-407.88"/>
<text text-anchor="start" x="132.25" y="-395.32" font-family="Helvetica,sans-Serif" font-size="9.00">requestprocessor.js</text>
</a>
</g>
</g>
<!-- worker/proxy/requestprocessor.js&#45;&gt;worker/common/util/dateutil.js -->
<g id="edge18" class="edge">
<title>worker/proxy/requestprocessor.js&#45;&gt;worker/common/util/dateutil.js</title>
<path fill="none" stroke="#000000" stroke-width="2" stroke-opacity="0.200000" d="M186.6,-408.3C245.16,-448.27 483.82,-598.25 610.38,-481 633.1,-459.95 602.43,-366.8 621,-342 622.53,-339.96 624.37,-338.19 626.41,-336.67"/>
<polygon fill="#000000" fill-opacity="0.200000" stroke="#000000" stroke-width="2" stroke-opacity="0.200000" points="627.17,-338.66 631.34,-333.86 625.08,-335.01 627.17,-338.66"/>
</g>
<!-- worker/proxy/transactionvalidator.js -->
<g id="node18" class="node">
<title>worker/proxy/transactionvalidator.js</title>
<g id="a_node18"><a xlink:href="worker/proxy/transactionvalidator.js" xlink:title="transactionvalidator.js">
<path fill="#ffffcc" stroke="black" d="M332.83,-407.88C332.83,-407.88 239.42,-407.88 239.42,-407.88 236.46,-407.88 233.5,-404.92 233.5,-401.96 233.5,-401.96 233.5,-396.04 233.5,-396.04 233.5,-393.08 236.46,-390.12 239.42,-390.12 239.42,-390.12 332.83,-390.12 332.83,-390.12 335.79,-390.12 338.75,-393.08 338.75,-396.04 338.75,-396.04 338.75,-401.96 338.75,-401.96 338.75,-404.92 335.79,-407.88 332.83,-407.88"/>
<text text-anchor="start" x="241.5" y="-395.32" font-family="Helvetica,sans-Serif" font-size="9.00">transactionvalidator.js</text>
</a>
</g>
</g>
<!-- worker/proxy/requestprocessor.js&#45;&gt;worker/proxy/transactionvalidator.js -->
<g id="edge19" class="edge">
<title>worker/proxy/requestprocessor.js&#45;&gt;worker/proxy/transactionvalidator.js</title>
<path fill="none" stroke="#000000" stroke-width="2" stroke-opacity="0.200000" d="M220.77,-399C222.07,-399 223.38,-399 224.69,-399"/>
<polygon fill="#000000" fill-opacity="0.200000" stroke="#000000" stroke-width="2" stroke-opacity="0.200000" points="224.33,-401.1 230.33,-399 224.33,-396.9 224.33,-401.1"/>
</g>
<!-- worker/proxy/transactionvalidator.js&#45;&gt;worker/common/connection/websocketxnquery.js -->
<g id="edge20" class="edge">
<title>worker/proxy/transactionvalidator.js&#45;&gt;worker/common/connection/websocketxnquery.js</title>
<path fill="none" stroke="#000000" stroke-width="2" stroke-opacity="0.200000" d="M306.23,-389.69C329.11,-378.54 367.58,-359.79 393.49,-347.16"/>
<polygon fill="#000000" fill-opacity="0.200000" stroke="#000000" stroke-width="2" stroke-opacity="0.200000" points="394.23,-349.14 398.7,-344.62 392.39,-345.36 394.23,-349.14"/>
</g>
<!-- worker/proxy/validatingproxy.js -->
<g id="node19" class="node">
<title>worker/proxy/validatingproxy.js</title>
<g id="a_node19"><a xlink:href="worker/proxy/validatingproxy.js" xlink:title="validatingproxy.js">
<path fill="#ffffcc" stroke="black" d="M105.33,-407.88C105.33,-407.88 29.92,-407.88 29.92,-407.88 26.96,-407.88 24,-404.92 24,-401.96 24,-401.96 24,-396.04 24,-396.04 24,-393.08 26.96,-390.12 29.92,-390.12 29.92,-390.12 105.33,-390.12 105.33,-390.12 108.29,-390.12 111.25,-393.08 111.25,-396.04 111.25,-396.04 111.25,-401.96 111.25,-401.96 111.25,-404.92 108.29,-407.88 105.33,-407.88"/>
<text text-anchor="start" x="32" y="-395.32" font-family="Helvetica,sans-Serif" font-size="9.00">validatingproxy.js</text>
</a>
</g>
</g>
<!-- worker/proxy/validatingproxy.js&#45;&gt;worker/proxy/requestprocessor.js -->
<g id="edge21" class="edge">
<title>worker/proxy/validatingproxy.js&#45;&gt;worker/proxy/requestprocessor.js</title>
<path fill="none" stroke="#000000" stroke-width="2" stroke-opacity="0.200000" d="M111.6,-399C112.75,-399 113.9,-399 115.05,-399"/>
<polygon fill="#000000" fill-opacity="0.200000" stroke="#000000" stroke-width="2" stroke-opacity="0.200000" points="114.9,-401.1 120.9,-399 114.9,-396.9 114.9,-401.1"/>
</g>
</g>
</svg>
