<?xml version="1.0" encoding="UTF-8" standalone="no"?>
<!DOCTYPE svg PUBLIC "-//W3C//DTD SVG 1.1//EN"
 "http://www.w3.org/Graphics/SVG/1.1/DTD/svg11.dtd">
<!-- Generated by graphviz version 12.2.1 (20241206.2353)
 -->
<!-- Title: dependency&#45;cruiser output Pages: 1 -->
<svg width="290pt" height="320pt"
 viewBox="0.00 0.00 289.50 320.00" xmlns="http://www.w3.org/2000/svg" xmlns:xlink="http://www.w3.org/1999/xlink">
<g id="graph0" class="graph" transform="scale(1 1) rotate(0) translate(4 316)">
<title>dependency&#45;cruiser output</title>
<polygon fill="white" stroke="none" points="-4,4 -4,-316 285.5,-316 285.5,4 -4,4"/>
<g id="clust1" class="cluster">
<title>cluster_src</title>
<path fill="#ffffff" stroke="black" stroke-width="2" d="M20,-8C20,-8 261.5,-8 261.5,-8 267.5,-8 273.5,-14 273.5,-20 273.5,-20 273.5,-292 273.5,-292 273.5,-298 267.5,-304 261.5,-304 261.5,-304 20,-304 20,-304 14,-304 8,-298 8,-292 8,-292 8,-20 8,-20 8,-14 14,-8 20,-8"/>
<text text-anchor="middle" x="140.75" y="-291.45" font-family="Helvetica,sans-Serif" font-weight="bold" font-size="9.00">src</text>
</g>
<g id="clust2" class="cluster">
<title>cluster_src/config</title>
<path fill="#ffffff" stroke="black" stroke-width="2" d="M93.12,-16C93.12,-16 139.12,-16 139.12,-16 145.12,-16 151.12,-22 151.12,-28 151.12,-28 151.12,-56 151.12,-56 151.12,-62 145.12,-68 139.12,-68 139.12,-68 93.12,-68 93.12,-68 87.12,-68 81.12,-62 81.12,-56 81.12,-56 81.12,-28 81.12,-28 81.12,-22 87.12,-16 93.12,-16"/>
<text text-anchor="middle" x="116.12" y="-55.45" font-family="Helvetica,sans-Serif" font-weight="bold" font-size="9.00">config</text>
</g>
<g id="clust3" class="cluster">
<title>cluster_src/proxy</title>
<path fill="#ffffff" stroke="black" stroke-width="2" d="M90,-76C90,-76 142.25,-76 142.25,-76 148.25,-76 154.25,-82 154.25,-88 154.25,-88 154.25,-146 154.25,-146 154.25,-152 148.25,-158 142.25,-158 142.25,-158 90,-158 90,-158 84,-158 78,-152 78,-146 78,-146 78,-88 78,-88 78,-82 84,-76 90,-76"/>
<text text-anchor="middle" x="116.12" y="-145.45" font-family="Helvetica,sans-Serif" font-weight="bold" font-size="9.00">proxy</text>
</g>
<g id="clust4" class="cluster">
<title>cluster_src/transactions</title>
<path fill="#ffffff" stroke="black" stroke-width="2" d="M93.12,-196C93.12,-196 244.88,-196 244.88,-196 250.88,-196 256.88,-202 256.88,-208 256.88,-208 256.88,-266 256.88,-266 256.88,-272 250.88,-278 244.88,-278 244.88,-278 93.13,-278 93.13,-278 87.12,-278 81.12,-272 81.12,-266 81.12,-266 81.12,-208 81.12,-208 81.12,-202 87.12,-196 93.12,-196"/>
<text text-anchor="middle" x="169" y="-265.45" font-family="Helvetica,sans-Serif" font-weight="bold" font-size="9.00">transactions</text>
</g>
<g id="clust5" class="cluster">
<title>cluster_src/utils</title>
<path fill="#ffffff" stroke="black" stroke-width="2" d="M182.88,-76C182.88,-76 244.88,-76 244.88,-76 250.88,-76 256.88,-82 256.88,-88 256.88,-88 256.88,-176 256.88,-176 256.88,-182 250.88,-188 244.88,-188 244.88,-188 182.88,-188 182.88,-188 176.88,-188 170.88,-182 170.88,-176 170.88,-176 170.88,-88 170.88,-88 170.88,-82 176.88,-76 182.88,-76"/>
<text text-anchor="middle" x="213.88" y="-175.45" font-family="Helvetica,sans-Serif" font-weight="bold" font-size="9.00">utils</text>
</g>
<g id="clust6" class="cluster">
<title>cluster_src/websocket</title>
<path fill="#ffffff" stroke="black" stroke-width="2" d="M174.25,-16C174.25,-16 253.5,-16 253.5,-16 259.5,-16 265.5,-22 265.5,-28 265.5,-28 265.5,-56 265.5,-56 265.5,-62 259.5,-68 253.5,-68 253.5,-68 174.25,-68 174.25,-68 168.25,-68 162.25,-62 162.25,-56 162.25,-56 162.25,-28 162.25,-28 162.25,-22 168.25,-16 174.25,-16"/>
<text text-anchor="middle" x="213.88" y="-55.45" font-family="Helvetica,sans-Serif" font-weight="bold" font-size="9.00">websocket</text>
</g>
<!-- src/config/config.ts -->
<g id="node1" class="node">
<title>src/config/config.ts</title>
<g id="a_node1"><a xlink:href="src/config/config.ts" xlink:title="config.ts">
<path fill="#ddfeff" stroke="black" d="M137.21,-41.88C137.21,-41.88 95.04,-41.88 95.04,-41.88 92.08,-41.88 89.12,-38.92 89.12,-35.96 89.12,-35.96 89.12,-30.04 89.12,-30.04 89.12,-27.08 92.08,-24.12 95.04,-24.12 95.04,-24.12 137.21,-24.12 137.21,-24.12 140.17,-24.12 143.12,-27.08 143.12,-30.04 143.12,-30.04 143.12,-35.96 143.12,-35.96 143.12,-38.92 140.17,-41.88 137.21,-41.88"/>
<text text-anchor="start" x="99.25" y="-29.32" font-family="Helvetica,sans-Serif" font-size="9.00">config.ts</text>
</a>
</g>
</g>
<!-- src/index.ts -->
<g id="node2" class="node">
<title>src/index.ts</title>
<g id="a_node2"><a xlink:href="src/index.ts" xlink:title="index.ts">
<path fill="#ddfeff" stroke="black" d="M64.08,-153.88C64.08,-153.88 21.92,-153.88 21.92,-153.88 18.96,-153.88 16,-150.92 16,-147.96 16,-147.96 16,-142.04 16,-142.04 16,-139.08 18.96,-136.12 21.92,-136.12 21.92,-136.12 64.08,-136.12 64.08,-136.12 67.04,-136.12 70,-139.08 70,-142.04 70,-142.04 70,-147.96 70,-147.96 70,-150.92 67.04,-153.88 64.08,-153.88"/>
<text text-anchor="start" x="27.25" y="-141.32" font-family="Helvetica,sans-Serif" font-size="9.00">index.ts</text>
</a>
</g>
</g>
<!-- src/index.ts&#45;&gt;src/config/config.ts -->
<g id="edge1" class="edge">
<title>src/index.ts&#45;&gt;src/config/config.ts</title>
<path fill="none" stroke="#000000" stroke-width="2" stroke-opacity="0.200000" d="M47.35,-135.65C52.67,-121.44 63.91,-93.84 78,-73 84.01,-64.11 91.98,-55.25 98.99,-48.14"/>
<polygon fill="#000000" fill-opacity="0.200000" stroke="#000000" stroke-width="2" stroke-opacity="0.200000" points="100.11,-49.98 102.91,-44.27 97.17,-46.99 100.11,-49.98"/>
</g>
<!-- src/proxy/proxy.ts -->
<g id="node3" class="node">
<title>src/proxy/proxy.ts</title>
<g id="a_node3"><a xlink:href="src/proxy/proxy.ts" xlink:title="proxy.ts">
<path fill="#ddfeff" stroke="black" d="M137.21,-131.88C137.21,-131.88 95.04,-131.88 95.04,-131.88 92.08,-131.88 89.12,-128.92 89.12,-125.96 89.12,-125.96 89.12,-120.04 89.12,-120.04 89.12,-117.08 92.08,-114.12 95.04,-114.12 95.04,-114.12 137.21,-114.12 137.21,-114.12 140.17,-114.12 143.12,-117.08 143.12,-120.04 143.12,-120.04 143.12,-125.96 143.12,-125.96 143.12,-128.92 140.17,-131.88 137.21,-131.88"/>
<text text-anchor="start" x="100.38" y="-119.33" font-family="Helvetica,sans-Serif" font-size="9.00">proxy.ts</text>
</a>
</g>
</g>
<!-- src/index.ts&#45;&gt;src/proxy/proxy.ts -->
<g id="edge2" class="edge">
<title>src/index.ts&#45;&gt;src/proxy/proxy.ts</title>
<path fill="none" stroke="#000000" stroke-width="2" stroke-opacity="0.200000" d="M70.48,-136.81C73.67,-135.82 76.97,-134.8 80.25,-133.79"/>
<polygon fill="#000000" fill-opacity="0.200000" stroke="#000000" stroke-width="2" stroke-opacity="0.200000" points="80.85,-135.8 85.96,-132.02 79.61,-131.79 80.85,-135.8"/>
</g>
<!-- src/proxy/validator.ts -->
<g id="node4" class="node">
<title>src/proxy/validator.ts</title>
<g id="a_node4"><a xlink:href="src/proxy/validator.ts" xlink:title="validator.ts">
<path fill="#ddfeff" stroke="black" d="M140.33,-101.88C140.33,-101.88 91.92,-101.88 91.92,-101.88 88.96,-101.88 86,-98.92 86,-95.96 86,-95.96 86,-90.04 86,-90.04 86,-87.08 88.96,-84.12 91.92,-84.12 91.92,-84.12 140.33,-84.12 140.33,-84.12 143.29,-84.12 146.25,-87.08 146.25,-90.04 146.25,-90.04 146.25,-95.96 146.25,-95.96 146.25,-98.92 143.29,-101.88 140.33,-101.88"/>
<text text-anchor="start" x="94" y="-89.33" font-family="Helvetica,sans-Serif" font-size="9.00">validator.ts</text>
</a>
</g>
</g>
<!-- src/index.ts&#45;&gt;src/proxy/validator.ts -->
<g id="edge3" class="edge">
<title>src/index.ts&#45;&gt;src/proxy/validator.ts</title>
<path fill="none" stroke="#000000" stroke-width="2" stroke-opacity="0.200000" d="M50.63,-135.7C56.9,-127.49 66.96,-115.65 78,-108 78.77,-107.47 79.56,-106.95 80.38,-106.44"/>
<polygon fill="#000000" fill-opacity="0.200000" stroke="#000000" stroke-width="2" stroke-opacity="0.200000" points="81.09,-108.44 85.36,-103.73 79.09,-104.75 81.09,-108.44"/>
</g>
<!-- src/transactions/builder.ts -->
<g id="node5" class="node">
<title>src/transactions/builder.ts</title>
<g id="a_node5"><a xlink:href="src/transactions/builder.ts" xlink:title="builder.ts">
<path fill="#ddfeff" stroke="black" d="M137.21,-221.88C137.21,-221.88 95.04,-221.88 95.04,-221.88 92.08,-221.88 89.12,-218.92 89.12,-215.96 89.12,-215.96 89.12,-210.04 89.12,-210.04 89.12,-207.08 92.08,-204.12 95.04,-204.12 95.04,-204.12 137.21,-204.12 137.21,-204.12 140.17,-204.12 143.12,-207.08 143.12,-210.04 143.12,-210.04 143.12,-215.96 143.12,-215.96 143.12,-218.92 140.17,-221.88 137.21,-221.88"/>
<text text-anchor="start" x="97.38" y="-209.32" font-family="Helvetica,sans-Serif" font-size="9.00">builder.ts</text>
</a>
</g>
</g>
<!-- src/index.ts&#45;&gt;src/transactions/builder.ts -->
<g id="edge4" class="edge">
<title>src/index.ts&#45;&gt;src/transactions/builder.ts</title>
<path fill="none" stroke="#000000" stroke-width="2" stroke-opacity="0.200000" d="M47.37,-154.13C52.3,-166.27 62.6,-187.62 78,-200 79,-200.8 80.05,-201.56 81.14,-202.27"/>
<polygon fill="#000000" fill-opacity="0.200000" stroke="#000000" stroke-width="2" stroke-opacity="0.200000" points="79.82,-203.94 86.1,-204.9 81.79,-200.23 79.82,-203.94"/>
</g>
<!-- src/transactions/parser.ts -->
<g id="node6" class="node">
<title>src/transactions/parser.ts</title>
<g id="a_node6"><a xlink:href="src/transactions/parser.ts" xlink:title="parser.ts">
<path fill="#ddfeff" stroke="black" d="M137.21,-251.88C137.21,-251.88 95.04,-251.88 95.04,-251.88 92.08,-251.88 89.12,-248.92 89.12,-245.96 89.12,-245.96 89.12,-240.04 89.12,-240.04 89.12,-237.08 92.08,-234.12 95.04,-234.12 95.04,-234.12 137.21,-234.12 137.21,-234.12 140.17,-234.12 143.12,-237.08 143.12,-240.04 143.12,-240.04 143.12,-245.96 143.12,-245.96 143.12,-248.92 140.17,-251.88 137.21,-251.88"/>
<text text-anchor="start" x="98.5" y="-239.32" font-family="Helvetica,sans-Serif" font-size="9.00">parser.ts</text>
</a>
</g>
</g>
<!-- src/index.ts&#45;&gt;src/transactions/parser.ts -->
<g id="edge5" class="edge">
<title>src/index.ts&#45;&gt;src/transactions/parser.ts</title>
<path fill="none" stroke="#000000" stroke-width="2" stroke-opacity="0.200000" d="M45.39,-154.28C48.37,-171.14 56.92,-207.02 78,-228 79.05,-229.05 80.18,-230.02 81.38,-230.93"/>
<polygon fill="#000000" fill-opacity="0.200000" stroke="#000000" stroke-width="2" stroke-opacity="0.200000" points="79.95,-232.52 86.16,-233.87 82.15,-228.94 79.95,-232.52"/>
</g>
<!-- src/utils/logger.ts -->
<g id="node7" class="node">
<title>src/utils/logger.ts</title>
<g id="a_node7"><a xlink:href="src/utils/logger.ts" xlink:title="logger.ts">
<path fill="#ddfeff" stroke="black" d="M234.96,-131.88C234.96,-131.88 192.79,-131.88 192.79,-131.88 189.83,-131.88 186.88,-128.92 186.88,-125.96 186.88,-125.96 186.88,-120.04 186.88,-120.04 186.88,-117.08 189.83,-114.12 192.79,-114.12 192.79,-114.12 234.96,-114.12 234.96,-114.12 237.92,-114.12 240.88,-117.08 240.88,-120.04 240.88,-120.04 240.88,-125.96 240.88,-125.96 240.88,-128.92 237.92,-131.88 234.96,-131.88"/>
<text text-anchor="start" x="196.25" y="-119.33" font-family="Helvetica,sans-Serif" font-size="9.00">logger.ts</text>
</a>
</g>
</g>
<!-- src/index.ts&#45;&gt;src/utils/logger.ts -->
<g id="edge6" class="edge">
<title>src/index.ts&#45;&gt;src/utils/logger.ts</title>
<path fill="none" stroke="#000000" stroke-width="2" stroke-opacity="0.200000" d="M61.05,-154.3C84.33,-165.59 126.35,-180.84 154.25,-161 163.07,-154.73 154.42,-145.47 162.25,-138 166.66,-133.79 172.2,-130.76 177.98,-128.57"/>
<polygon fill="#000000" fill-opacity="0.200000" stroke="#000000" stroke-width="2" stroke-opacity="0.200000" points="178.51,-130.6 183.62,-126.83 177.27,-126.59 178.51,-130.6"/>
</g>
<!-- src/utils/http.ts -->
<g id="node8" class="node">
<title>src/utils/http.ts</title>
<g id="a_node8"><a xlink:href="src/utils/http.ts" xlink:title="http.ts">
<path fill="#ddfeff" stroke="black" d="M234.96,-101.88C234.96,-101.88 192.79,-101.88 192.79,-101.88 189.83,-101.88 186.88,-98.92 186.88,-95.96 186.88,-95.96 186.88,-90.04 186.88,-90.04 186.88,-87.08 189.83,-84.12 192.79,-84.12 192.79,-84.12 234.96,-84.12 234.96,-84.12 237.92,-84.12 240.88,-87.08 240.88,-90.04 240.88,-90.04 240.88,-95.96 240.88,-95.96 240.88,-98.92 237.92,-101.88 234.96,-101.88"/>
<text text-anchor="start" x="201.88" y="-89.33" font-family="Helvetica,sans-Serif" font-size="9.00">http.ts</text>
</a>
</g>
</g>
<!-- src/proxy/proxy.ts&#45;&gt;src/utils/http.ts -->
<g id="edge7" class="edge">
<title>src/proxy/proxy.ts&#45;&gt;src/utils/http.ts</title>
<path fill="none" stroke="#000000" stroke-width="2" stroke-opacity="0.200000" d="M143.33,-114.13C149.52,-112.08 156.11,-109.93 162.25,-108 167.42,-106.38 172.89,-104.7 178.26,-103.09"/>
<polygon fill="#000000" fill-opacity="0.200000" stroke="#000000" stroke-width="2" stroke-opacity="0.200000" points="178.5,-105.21 183.65,-101.49 177.3,-101.19 178.5,-105.21"/>
</g>
<!-- src/websocket/request&#45;sender.ts -->
<g id="node9" class="node">
<title>src/websocket/request&#45;sender.ts</title>
<g id="a_node9"><a xlink:href="src/websocket/request-sender.ts" xlink:title="request&#45;sender.ts">
<path fill="#ddfeff" stroke="black" d="M251.58,-41.88C251.58,-41.88 176.17,-41.88 176.17,-41.88 173.21,-41.88 170.25,-38.92 170.25,-35.96 170.25,-35.96 170.25,-30.04 170.25,-30.04 170.25,-27.08 173.21,-24.12 176.17,-24.12 176.17,-24.12 251.58,-24.12 251.58,-24.12 254.54,-24.12 257.5,-27.08 257.5,-30.04 257.5,-30.04 257.5,-35.96 257.5,-35.96 257.5,-38.92 254.54,-41.88 251.58,-41.88"/>
<text text-anchor="start" x="178.25" y="-29.32" font-family="Helvetica,sans-Serif" font-size="9.00">request&#45;sender.ts</text>
</a>
</g>
</g>
<!-- src/proxy/validator.ts&#45;&gt;src/websocket/request&#45;sender.ts -->
<g id="edge8" class="edge">
<title>src/proxy/validator.ts&#45;&gt;src/websocket/request&#45;sender.ts</title>
<path fill="none" stroke="#000000" stroke-width="2" stroke-opacity="0.200000" d="M133.11,-83.72C139.69,-79.85 147.37,-75.26 154.25,-71 166.69,-63.29 180.43,-54.4 191.48,-47.16"/>
<polygon fill="#000000" fill-opacity="0.200000" stroke="#000000" stroke-width="2" stroke-opacity="0.200000" points="192.61,-48.93 196.47,-43.88 190.3,-45.42 192.61,-48.93"/>
</g>
<!-- src/utils/transaction.ts -->
<g id="node10" class="node">
<title>src/utils/transaction.ts</title>
<g id="a_node10"><a xlink:href="src/utils/transaction.ts" xlink:title="transaction.ts">
<path fill="#ddfeff" stroke="black" d="M242.96,-161.88C242.96,-161.88 184.79,-161.88 184.79,-161.88 181.83,-161.88 178.88,-158.92 178.88,-155.96 178.88,-155.96 178.88,-150.04 178.88,-150.04 178.88,-147.08 181.83,-144.12 184.79,-144.12 184.79,-144.12 242.96,-144.12 242.96,-144.12 245.92,-144.12 248.88,-147.08 248.88,-150.04 248.88,-150.04 248.88,-155.96 248.88,-155.96 248.88,-158.92 245.92,-161.88 242.96,-161.88"/>
<text text-anchor="start" x="186.88" y="-149.32" font-family="Helvetica,sans-Serif" font-size="9.00">transaction.ts</text>
</a>
</g>
</g>
<!-- src/transactions/builder.ts&#45;&gt;src/utils/transaction.ts -->
<g id="edge9" class="edge">
<title>src/transactions/builder.ts&#45;&gt;src/utils/transaction.ts</title>
<path fill="none" stroke="#000000" stroke-width="2" stroke-opacity="0.200000" d="M143.26,-205.28C147.05,-203.75 150.83,-201.99 154.25,-200 158.33,-197.62 158.62,-196.02 162.25,-193 172.44,-184.52 184.03,-175.33 193.55,-167.9"/>
<polygon fill="#000000" fill-opacity="0.200000" stroke="#000000" stroke-width="2" stroke-opacity="0.200000" points="194.83,-169.57 198.28,-164.23 192.25,-166.25 194.83,-169.57"/>
</g>
<!-- src/transactions/transaction.ts -->
<g id="node11" class="node">
<title>src/transactions/transaction.ts</title>
<g id="a_node11"><a xlink:href="src/transactions/transaction.ts" xlink:title="transaction.ts">
<path fill="#ddfeff" stroke="black" d="M242.96,-221.88C242.96,-221.88 184.79,-221.88 184.79,-221.88 181.83,-221.88 178.88,-218.92 178.88,-215.96 178.88,-215.96 178.88,-210.04 178.88,-210.04 178.88,-207.08 181.83,-204.12 184.79,-204.12 184.79,-204.12 242.96,-204.12 242.96,-204.12 245.92,-204.12 248.88,-207.08 248.88,-210.04 248.88,-210.04 248.88,-215.96 248.88,-215.96 248.88,-218.92 245.92,-221.88 242.96,-221.88"/>
<text text-anchor="start" x="186.88" y="-209.32" font-family="Helvetica,sans-Serif" font-size="9.00">transaction.ts</text>
</a>
</g>
</g>
<!-- src/transactions/builder.ts&#45;&gt;src/transactions/transaction.ts -->
<g id="edge10" class="edge">
<title>src/transactions/builder.ts&#45;&gt;src/transactions/transaction.ts</title>
<path fill="none" stroke="#000000" stroke-width="2" stroke-opacity="0.200000" d="M143.54,-213C151.68,-213 160.86,-213 169.81,-213"/>
<polygon fill="#000000" fill-opacity="0.200000" stroke="#000000" stroke-width="2" stroke-opacity="0.200000" points="169.62,-215.1 175.62,-213 169.62,-210.9 169.62,-215.1"/>
</g>
</g>
</svg>
